# xmcd
# 
# Track frame offsets:
#     150
#     453
#     13512
#     33980
# 
# Disc length: 651
# 
# Revision: 0
# Processed by: cddbd v1.5.2PL0 Copyright (c) Steve Scherf et al.
# Submitted via: fre:ac v1.0.17
# 
DISCID=1d028904
DTITLE=偷摸大雞 - 偷摸大雞
DYEAR=0
DGENRE=
TTITLE0=咿哈
TTITLE1=偷摸大雞
TTITLE2=想每天聽到你的聲音
TTITLE3=交換日記
EXTD=
EXTT0=
EXTT1=
EXTT2=
EXTT3=
PLAYORDER=
